<?xml version="1.0" encoding="UTF-8"?>
<svg width="12px" height="5px" viewBox="0 0 12 5" version="1.1" xmlns="http://www.w3.org/2000/svg" xmlns:xlink="http://www.w3.org/1999/xlink">
    <!-- Generator: Sketch 49.3 (51167) - http://www.bohemiancoding.com/sketch -->
    <title>后台运营工具</title>
    <desc>Created with Sketch.</desc>
    <defs></defs>
    <g id="ooto-Productivity-Dashboards" stroke="none" stroke-width="1" fill="none" fill-rule="evenodd" opacity="0.78">
        <g id="t" transform="translate(-413.000000, -577.000000)" fill="#FFFFFF">
            <g id="Group" transform="translate(377.000000, 571.000000)">
                <path d="M38.5898438,9.00585938 C38.9648456,9.49284098 39.2812487,9.93554488 39.5390625,10.3339844 L39.2421875,10.5292969 C39.1692705,10.4095046 39.0917973,10.2851569 39.0097656,10.15625 C38.1503863,10.1979169 37.4518256,10.2402342 36.9140625,10.2832031 C36.8151037,10.2936198 36.6953132,10.315755 36.5546875,10.3496094 L36.3828125,10.0175781 C36.5000006,9.97070289 36.6080724,9.89908902 36.7070312,9.80273438 C37.0117203,9.45117012 37.3424461,8.93164406 37.6992188,8.24414062 L38.0351562,8.39648438 C37.712238,8.95117465 37.3671893,9.46939863 37,9.95117188 C37.5377631,9.93424471 38.146481,9.91015641 38.8261719,9.87890625 C38.6777336,9.65364471 38.5143238,9.41601688 38.3359375,9.16601562 L38.5898438,9.00585938 Z M38.2539062,6.90429688 L38.5429688,6.79101562 C38.7955742,7.47070652 39.2656216,8.00976363 39.953125,8.40820312 C39.8828121,8.48112016 39.8020838,8.58268164 39.7109375,8.71289062 C38.9921839,8.21809648 38.5065117,7.61523793 38.2539062,6.90429688 Z M36.046875,8.52148438 C36.6276071,8.04752367 37.0611965,7.48893551 37.3476562,6.84570312 L37.65625,6.97460938 C37.3046857,7.70638387 36.8515653,8.30533621 36.296875,8.77148438 C36.2291663,8.68554645 36.1458338,8.60221395 36.046875,8.52148438 Z M42.5898438,9.39257812 C42.9674498,9.7285173 43.2929674,10.0436183 43.5664062,10.3378906 L43.3125,10.5644531 C43.2291662,10.4680985 43.132813,10.3613287 43.0234375,10.2441406 C42.3749968,10.2832033 41.712243,10.3274737 41.0351562,10.3769531 C40.9257807,10.3873698 40.8151047,10.4160154 40.703125,10.4628906 L40.5273438,10.1386719 C40.6549486,10.0917966 40.7630204,10.0292973 40.8515625,9.95117188 C41.0781261,9.7298166 41.2968739,9.47070461 41.5078125,9.17382812 L40.2070312,9.17382812 L40.2070312,8.88476562 L43.7929688,8.88476562 L43.7929688,9.17382812 L41.9023438,9.17382812 C41.6367174,9.5097673 41.3776054,9.80794141 41.125,10.0683594 C41.7005237,10.0397134 42.2499974,10.0123699 42.7734375,9.98632812 C42.6536452,9.86393168 42.5221361,9.73112051 42.3789062,9.58789062 L42.5898438,9.39257812 Z M42,7.03320312 C41.4791641,7.64778953 40.8945345,8.14257625 40.2460938,8.51757812 C40.1835934,8.42382766 40.1119796,8.32877652 40.03125,8.23242188 C40.7786496,7.84960746 41.3841123,7.34440418 41.8476562,6.71679688 L42.265625,6.71679688 L42.1914062,6.81445312 C42.6419293,7.41601863 43.2369755,7.85742047 43.9765625,8.13867188 C43.8984371,8.24283906 43.8255212,8.35351504 43.7578125,8.47070312 C43.0026004,8.10351379 42.4166687,7.62435191 42,7.03320312 Z M40.9140625,8.08007812 L43.0703125,8.08007812 L43.0703125,8.36914062 L40.9140625,8.36914062 L40.9140625,8.08007812 Z M45.796875,6.98632812 C46.5572955,6.97330723 47.2109348,6.91862027 47.7578125,6.82226562 L47.8632812,7.11132812 C47.1262984,7.19466187 46.5286481,7.24023434 46.0703125,7.24804688 L46.0703125,7.89257812 L47.71875,7.89257812 L47.71875,8.12695312 C47.6145828,8.75195625 47.4153661,9.25325332 47.1210938,9.63085938 C47.3111989,9.83007912 47.5885398,10.012369 47.953125,10.1777344 C47.8593745,10.2845057 47.7799482,10.3808589 47.7148438,10.4667969 C47.3776025,10.2610667 47.1165374,10.0566416 46.9316406,9.85351562 C46.7167958,10.076173 46.4205748,10.2962229 46.0429688,10.5136719 C45.988281,10.4225256 45.9244795,10.3300786 45.8515625,10.2363281 C46.2434915,10.046223 46.5455719,9.84375107 46.7578125,9.62890625 C46.4986966,9.26562318 46.3313806,8.77278957 46.2558594,8.15039062 L46.0703125,8.15039062 L46.0703125,8.74804688 C46.0703125,9.47200883 45.9023454,10.0618467 45.5664062,10.5175781 C45.5039059,10.4264318 45.4388024,10.3430993 45.3710938,10.2675781 C45.5377613,10.004556 45.6510414,9.75065227 45.7109375,9.50585938 C45.7682295,9.26887902 45.796875,8.94726766 45.796875,8.54101562 L45.796875,6.98632812 Z M45.3125,10.4628906 L45.0390625,10.4628906 L45.0390625,8.98242188 L44.6074219,8.98242188 C44.594401,9.60612291 44.4856781,10.1178365 44.28125,10.5175781 C44.223958,10.4446611 44.148438,10.369141 44.0546875,10.2910156 C44.2421884,9.96549316 44.3359375,9.47070645 44.3359375,8.80664062 L44.3359375,6.81054688 L44.609375,6.81054688 L44.609375,7.87695312 L45.015625,7.87695312 L45.015625,6.70898438 L45.2890625,6.70898438 L45.2890625,7.87695312 L45.6171875,7.87695312 L45.6171875,8.11914062 L44.609375,8.11914062 L44.609375,8.74023438 L45.3125,8.74023438 L45.3125,10.4628906 Z M47.421875,8.15039062 L46.5292969,8.15039062 C46.5944014,8.66080984 46.7337229,9.07942545 46.9472656,9.40625 C47.1738293,9.09635262 47.3320308,8.67773701 47.421875,8.15039062 Z" id="后台运营工具"></path>
            </g>
        </g>
    </g>
</svg>
