<svg id="组_60" data-name="组 60" xmlns="http://www.w3.org/2000/svg" width="36" height="27" viewBox="0 0 36 27">
  <metadata><?xpacket begin="﻿" id="W5M0MpCehiHzreSzNTczkc9d"?>
<x:xmpmeta xmlns:x="adobe:ns:meta/" x:xmptk="Adobe XMP Core 5.6-c140 79.160451, 2017/05/06-01:08:21        ">
   <rdf:RDF xmlns:rdf="http://www.w3.org/1999/02/22-rdf-syntax-ns#">
      <rdf:Description rdf:about=""/>
   </rdf:RDF>
</x:xmpmeta>
                                                                                                    
                                                                                                    
                                                                                                    
                                                                                                    
                                                                                                    
                                                                                                    
                                                                                                    
                                                                                                    
                                                                                                    
                                                                                                    
                                                                                                    
                                                                                                    
                                                                                                    
                                                                                                    
                                                                                                    
                                                                                                    
                                                                                                    
                                                                                                    
                                                                                                    
                                                                                                    
                           
<?xpacket end="w"?></metadata>
<defs>
    <style>
      .cls-1, .cls-2 {
        fill: #fff;
        fill-rule: evenodd;
      }

      .cls-1 {
        opacity: 0.4;
      }

      .cls-2 {
        opacity: 0.92;
      }
    </style>
  </defs>
  <path id="形状_6" data-name="形状 6" class="cls-1" d="M1172.4,348h6.67a0.793,0.793,0,0,0,.93-0.633,4.73,4.73,0,0,0-1.45-3.481,6.593,6.593,0,0,0-3.72-1.74,0.849,0.849,0,0,1-.47-0.211,0.613,0.613,0,0,1-.15-0.317,5.075,5.075,0,0,0,1.29-2.162,3.32,3.32,0,0,1,.36-0.738,4.287,4.287,0,0,0,1.09-1.582,2.423,2.423,0,0,0-.1-2.163,10.575,10.575,0,0,0,.31-1.476,5.966,5.966,0,0,0,0-1.688,6.557,6.557,0,0,0-1.35-2.848,2.568,2.568,0,0,0-2.17-1.107,2.672,2.672,0,0,0-1.81-1,8.491,8.491,0,0,0-1.76-.106h-0.21l-15.83.106a8.491,8.491,0,0,0-1.76-.106,5.915,5.915,0,0,0-3.31.95,4.976,4.976,0,0,0-1.91,2.584,8.132,8.132,0,0,0-.41,2.637,6.2,6.2,0,0,0,.31,2,2.4,2.4,0,0,0-.05,2.109,4.383,4.383,0,0,0,1.08,1.582h0.05a6.37,6.37,0,0,1,.37.739,5.187,5.187,0,0,0,1.39,2.267,0.635,0.635,0,0,1-.15.264,0.842,0.842,0,0,1-.47.211,6.6,6.6,0,0,0-3.72,1.74,4.652,4.652,0,0,0-1.45,3.428,0.569,0.569,0,0,0,.67.633h27.73" transform="translate(-1144 -321)"/>
  <path id="形状_5" data-name="形状 5" class="cls-2" d="M1172.36,347.893a1.042,1.042,0,0,0,1.03-1.054,5.952,5.952,0,0,0-1.8-4.321,8.255,8.255,0,0,0-4.68-2.161,1.021,1.021,0,0,1-.62-0.263,0.739,0.739,0,0,1-.2-0.369,6.358,6.358,0,0,0,1.69-2.794,4.169,4.169,0,0,1,.47-0.948h0.05a5.5,5.5,0,0,0,1.33-2,3.044,3.044,0,0,0-.15-2.74,11.591,11.591,0,0,0,.36-1.845,6.774,6.774,0,0,0,0-2.108,8.12,8.12,0,0,0-1.65-3.531,3.121,3.121,0,0,0-2.72-1.37,3.316,3.316,0,0,0-2.26-1.265,10.573,10.573,0,0,0-2.16-.1,7.339,7.339,0,0,0-4.12,1.212,6.223,6.223,0,0,0-2.36,3.267V325.6a10.113,10.113,0,0,0-.52,3.32,8.323,8.323,0,0,0,.36,2.529,3.082,3.082,0,0,0-.1,2.636,5.541,5.541,0,0,0,1.34,2h0.05a6.485,6.485,0,0,1,.41.949,6.626,6.626,0,0,0,1.75,2.846,0.759,0.759,0,0,1-.16.316,0.989,0.989,0,0,1-.61.263,8.225,8.225,0,0,0-4.68,2.161,5.879,5.879,0,0,0-1.8,4.322,1.042,1.042,0,0,0,1.03,1.054Z" transform="translate(-1144 -321)"/>
</svg>
