<?xml version="1.0" encoding="iso-8859-1"?>
<!-- Generator: Adobe Illustrator 19.0.0, SVG Export Plug-In . SVG Version: 6.00 Build 0)  -->
<svg version="1.1" id="&#x56FE;&#x5C42;_1" xmlns="http://www.w3.org/2000/svg" xmlns:xlink="http://www.w3.org/1999/xlink" x="0px"
	 y="0px" viewBox="0 0 1024 1024" style="enable-background:new 0 0 1024 1024;" xml:space="preserve">
<path style="fill:#3B77FF;" d="M511.953,558.515"/>
<path style="fill:#777777;" d="M905.761,701.867l4.646-0.031C908.825,701.836,907.279,701.848,905.761,701.867L905.761,701.867z"/>
<path style="fill:#777777;" d="M712.532,661.405c0,0-75.198,0.005-76.976,0l0,0"/>
<path style="fill:#777777;" d="M635.556,661.405"/>
<polyline style="fill:none;" points="163.9,926.347 163.9,97.227 910.438,97.227 910.438,926.347 "/>
<path style="fill:#FFFFFF;" d="M689.556,926.846c-106.887,0-193.821-88.343-193.821-196.933
	c0-108.527,86.934-196.871,193.821-196.871c106.824,0,193.824,88.344,193.824,196.902
	C883.38,838.503,796.415,926.846,689.556,926.846L689.556,926.846z"/>
<path style="fill:#FFFFFF;" d="M689.556,578.917"/>
<path style="fill:#777777;" d="M541.313,153.979"/>
<rect x="140.333" y="108.087" style="fill:none;" width="744" height="819.76"/>
<path style="fill:#76767E;" d="M593.24,893.885c-11.812,0-22.686-5.477-29.835-15.024c-8.877-11.854-9.972-27.294-2.859-40.291
	c45.001-82.205,18.155-126.745-1.854-145.979c-36.637-35.383-78.823-88.407-82.564-147.46
	c-62.479,48.782-79.154,99.083-83.465,125.733c-7.941,49.083,9.245,101.905,51.08,156.999c9.921,13.066,10.317,30.24,1.007,43.754
	c-7.112,10.323-18.26,16.242-30.587,16.243c-3.611,0-7.234-0.526-10.768-1.561C364.889,875.011,309.13,853,262.165,812.251
	c-57.922-50.255-87.36-115.02-87.497-192.495l-0.001-0.529c0.111-48.031,14.796-91.517,44.895-132.972
	c26.307-36.232,61.041-66.738,94.63-96.238c38.203-33.552,74.287-65.243,98.218-103.771c26.548-42.741,34.104-87.777,23.779-141.733
	c-2.625-13.719,2.566-27.622,13.546-36.284c6.601-5.208,14.845-8.078,23.212-8.078c5.346,0,10.543,1.122,15.446,3.333
	c33.848,15.277,82.475,43.127,121.929,89.047c42.907,49.94,64.031,108.273,62.992,173.73c1.188-1.82,2.343-3.659,3.462-5.518
	c5.562-9.227,15.413-14.735,26.352-14.735c3.246,0,6.604,0.476,9.979,1.415c29.15,8.106,63.202,53.37,83.505,89.669
	c31.639,56.562,49.063,120.689,49.063,180.568c0,83.292-47.37,146.794-87.109,185.399c-45.523,44.226-105.74,78.687-157.15,89.936
	C598.715,893.586,595.965,893.885,593.24,893.885z M487.161,486.457c6.726,0,13.383,1.861,19.253,5.382
	c12.673,7.599,19.54,21.433,17.92,36.103c-2.947,26.684,6.4,70.914,67.665,130.084c31.286,30.073,44.87,68.368,40.361,113.806
	c-2.508,25.266-10.525,48.989-18.862,67.838c37.734-13.293,79.031-39.379,111.62-71.039c33.099-32.155,72.555-84.448,72.555-150.97
	c0-70.668-27.42-129.686-43.764-158.575c-17.847-31.546-34.897-50.542-45.212-59.502c-6.493,9.18-13.67,17.902-21.411,26.014
	c-7.186,7.529-16.743,11.676-26.912,11.676c-5.608,0.001-11.081-1.254-16.267-3.729c-14.852-7.088-23.081-22.222-20.967-38.554
	c8.349-64.514-7.648-121.396-47.547-169.064c-27.664-33.051-61.586-55.573-89.035-69.957c6.977,56.943-3.829,107.707-32.846,154.733
	c-27.835,45.11-68.509,80.833-107.843,115.379c-63.303,55.596-123.093,108.106-123.201,193.428
	c0.067,63.037,23.939,115.692,70.952,156.482c29.744,25.808,64.143,42.978,93.142,54.081
	c-36.279-56.795-50.231-112.83-41.488-166.876c13.837-85.527,81.63-143.32,120.81-170.158
	C472.377,488.733,479.664,486.457,487.161,486.457z"/>
</svg>
