<svg xmlns="http://www.w3.org/2000/svg" width="32" height="35" viewBox="0 0 32 35">
  <metadata><?xpacket begin="﻿" id="W5M0MpCehiHzreSzNTczkc9d"?>
<x:xmpmeta xmlns:x="adobe:ns:meta/" x:xmptk="Adobe XMP Core 5.6-c140 79.160451, 2017/05/06-01:08:21        ">
   <rdf:RDF xmlns:rdf="http://www.w3.org/1999/02/22-rdf-syntax-ns#">
      <rdf:Description rdf:about=""/>
   </rdf:RDF>
</x:xmpmeta>
                                                                                                    
                                                                                                    
                                                                                                    
                                                                                                    
                                                                                                    
                                                                                                    
                                                                                                    
                                                                                                    
                                                                                                    
                                                                                                    
                                                                                                    
                                                                                                    
                                                                                                    
                                                                                                    
                                                                                                    
                                                                                                    
                                                                                                    
                                                                                                    
                                                                                                    
                                                                                                    
                           
<?xpacket end="w"?></metadata>
<defs>
    <style>
      .cls-1 {
        fill: #fff;
        fill-rule: evenodd;
        opacity: 0.92;
      }
    </style>
  </defs>
  <path id="形状_4" data-name="形状 4" class="cls-1" d="M569.74,330.924a16,16,0,0,0-2.746-2.424c-0.189-.1-0.284-0.194-0.473-0.291a3.914,3.914,0,0,0,2.272-3.394c0-2.327-2.178-4.072-4.829-4.072a4.324,4.324,0,0,0-1.609.291,3.112,3.112,0,0,0-.568.291,0.559,0.559,0,0,1-.379-0.1,4.518,4.518,0,0,0-.946-1.067,3.389,3.389,0,0,0-5.113,0,4.805,4.805,0,0,0-.947,1.067,0.935,0.935,0,0,0-.284-0.1,1.523,1.523,0,0,0-.568-0.291,4.324,4.324,0,0,0-1.609-.291c-2.556,0-4.829,1.745-4.829,4.072a3.913,3.913,0,0,0,2.273,3.394,2.06,2.06,0,0,1-.474.291,21.643,21.643,0,0,0-2.745,2.424c-2.557,2.715-4.166,5.818-4.166,9.212,0,9.5,7.2,14.06,15.811,14.06h0.378C566.8,354,574,349.445,574,339.942A13.641,13.641,0,0,0,569.74,330.924Zm-7.1,9.794a0.97,0.97,0,0,1,0,1.939h-3.787v3.782a0.947,0.947,0,1,1-1.893,0v-3.782h-3.787a0.97,0.97,0,0,1,0-1.939h3.787v-2.327h-3.882a0.97,0.97,0,0,1,0-1.94h2.84l-3.124-3.2a0.952,0.952,0,0,1,0-1.357,0.9,0.9,0,0,1,1.325,0l3.787,3.879,3.787-3.879a0.9,0.9,0,0,1,1.326,0,0.954,0.954,0,0,1,0,1.357l-3.124,3.2h2.84a0.97,0.97,0,0,1,0,1.94h-3.882v2.327h3.787Z" transform="translate(-542 -319)"/>
</svg>
