<?xml version="1.0" standalone="no"?><!DOCTYPE svg PUBLIC "-//W3C//DTD SVG 1.1//EN" "http://www.w3.org/Graphics/SVG/1.1/DTD/svg11.dtd"><svg t="1520580588304" class="icon" style="" viewBox="0 0 1024 1024" version="1.1" xmlns="http://www.w3.org/2000/svg" p-id="8517" xmlns:xlink="http://www.w3.org/1999/xlink" width="200" height="200"><defs><style type="text/css"></style></defs><path d="M531.1763610839845 531.1763610839845h345.17037963867193V512c0-180.2559814453125-145.73886108398435-325.9940185546875-325.99484252929693-325.9940185546875h-19.175537109375v345.17037963867193z m-23.011962890625-379.6875c11.5059814453125 0 26.846740722656254-3.835601806640625 42.1875-3.835601806640625 199.4323425292969 0 364.3467407226563 164.91522216796872 364.3467407226563 364.3467407226563 0 15.340759277343746 0 26.846740722656254-3.8347778320312504 42.1875v15.340759277343746H492.8236389160156V151.48886108398438h15.340759277343746z m-72.86901855468751 38.35189819335938c11.5059814453125 0 19.17636108398437 7.67120361328125 23.011138916015625 15.340759277343746s-7.670379638671873 19.17636108398437-19.175537109375 19.17636108398437C274.21575927734375 243.5342407226563 147.6532592773437 381.6018981933594 147.6532592773437 550.3518981933594c0 180.2559814453125 145.73886108398435 325.99484252929693 325.99484252929693 325.99484252929693 161.07879638671878 0 299.14727783203125-118.89212036132812 322.1584167480469-279.97174072265625 0-11.5059814453125 11.5059814453125-19.17636108398437 23.011962890625-15.340759277343746 11.505157470703123 0 19.175537109375 11.505157470703123 15.340759277343746 23.011138916015625-26.846740722656254 176.42120361328125-180.2559814453125 310.6532592773437-360.5111389160156 310.6532592773437-199.4323425292969 0-364.3467407226563-164.91439819335938-364.3467407226563-364.3467407226563 0-187.925537109375 141.90325927734375-341.3347778320313 325.9940185546875-360.5111389160156z" p-id="8518"></path></svg>